<svg width="40" height="40" viewBox="0 0 40 40" fill="none" xmlns="http://www.w3.org/2000/svg">
<circle cx="20" cy="20" r="19.5" fill="black"/>
<circle cx="20" cy="20" r="19.5" fill="#B0B0B0" fill-opacity="0.43"/>
<circle cx="20" cy="20" r="19.5" stroke="black"/>
<circle cx="20" cy="20" r="17.5" fill="black" stroke="black"/>
<path d="M8.34666 27.7492C12.3478 26.5181 22.012 25.2562 28.66 30.0576" stroke="#E2E2E2" stroke-width="3" stroke-linecap="round"/>
<path d="M6.5 14.6203C11.1167 13.0815 23.5817 10.927 34.2 17.3903" stroke="#E2E2E2" stroke-width="4" stroke-linecap="round"/>
<path d="M7.42334 21.5861C12.3478 20.0472 24.0433 18.4468 31.43 24.3561" stroke="#E2E2E2" stroke-width="3.5" stroke-linecap="round"/>
<path d="M29 20C29 24.9706 24.9706 29 20 29C15.0294 29 11 24.9706 11 20C11 15.0294 15.0294 11 20 11C24.9706 11 29 15.0294 29 20Z" fill="black"/>
<circle cx="20" cy="20" r="6" fill="#1ED760"/>
<circle cx="20" cy="20" r="1" fill="#D9D9D9"/>
<path d="M17.0041 18V16.84C17.0905 16.824 17.1828 16.816 17.2809 16.816C17.4281 16.816 17.5385 16.8432 17.6121 16.8976C17.6868 16.9509 17.7241 17.0288 17.7241 17.1312C17.7241 17.2944 17.634 17.3947 17.4537 17.432V17.4352C17.4804 17.448 17.5049 17.4704 17.5273 17.5024C17.5508 17.5344 17.5785 17.5872 17.6105 17.6608L17.7561 18H17.6713L17.5321 17.6704C17.514 17.6277 17.4985 17.5952 17.4857 17.5728C17.474 17.5504 17.4612 17.5307 17.4473 17.5136C17.4334 17.4955 17.4169 17.4837 17.3977 17.4784C17.3785 17.472 17.3582 17.4677 17.3369 17.4656C17.3156 17.4624 17.2846 17.4608 17.2441 17.4608H17.0841V18H17.0041ZM17.0841 17.3936H17.2441C17.3828 17.3936 17.4841 17.3723 17.5481 17.3296C17.6132 17.2869 17.6457 17.2224 17.6457 17.136C17.6457 16.9685 17.5225 16.8848 17.2761 16.8848C17.2057 16.8848 17.1417 16.8901 17.0841 16.9008V17.3936ZM17.8984 17.6112C17.8994 17.7179 17.9288 17.8016 17.9864 17.8624C18.045 17.9232 18.1229 17.9536 18.22 17.9536C18.3085 17.9536 18.3922 17.9312 18.4712 17.8864L18.4952 17.9456C18.4088 17.9925 18.3154 18.016 18.2152 18.016C18.0957 18.016 18.0002 17.9776 17.9288 17.9008C17.8584 17.8229 17.8232 17.7173 17.8232 17.584C17.8232 17.4496 17.8568 17.344 17.924 17.2672C17.9912 17.1904 18.0829 17.152 18.1992 17.152C18.3101 17.152 18.396 17.1888 18.4568 17.2624C18.5176 17.336 18.548 17.4405 18.548 17.576V17.6112H17.8984ZM17.9 17.5472H18.4744C18.4722 17.4395 18.4472 17.3573 18.3992 17.3008C18.3522 17.2432 18.2856 17.2144 18.1992 17.2144C18.1074 17.2144 18.0354 17.2437 17.9832 17.3024C17.9309 17.36 17.9032 17.4416 17.9 17.5472ZM19.0723 17.2176C18.9678 17.2176 18.8856 17.2501 18.8259 17.3152C18.7672 17.3792 18.7379 17.4688 18.7379 17.584C18.7379 17.6949 18.7688 17.784 18.8307 17.8512C18.8926 17.9184 18.9731 17.952 19.0723 17.952C19.1459 17.952 19.2163 17.9344 19.2835 17.8992L19.3059 17.96C19.2312 17.9973 19.1523 18.016 19.0691 18.016C18.9475 18.016 18.8488 17.9765 18.7731 17.8976C18.6984 17.8187 18.6611 17.7141 18.6611 17.584C18.6611 17.4496 18.6974 17.344 18.7699 17.2672C18.8424 17.1904 18.9422 17.152 19.0691 17.152C19.1523 17.152 19.2312 17.1707 19.3059 17.208L19.2835 17.2704C19.2163 17.2352 19.1459 17.2176 19.0723 17.2176ZM20.0446 17.3152C19.9891 17.2491 19.9139 17.216 19.819 17.216C19.7241 17.216 19.6489 17.2491 19.5934 17.3152C19.5379 17.3803 19.5102 17.4699 19.5102 17.584C19.5102 17.6981 19.5379 17.7883 19.5934 17.8544C19.6489 17.9195 19.7241 17.952 19.819 17.952C19.9139 17.952 19.9891 17.9195 20.0446 17.8544C20.1001 17.7883 20.1278 17.6981 20.1278 17.584C20.1278 17.4699 20.1001 17.3803 20.0446 17.3152ZM20.099 17.8992C20.0297 17.9771 19.9363 18.016 19.819 18.016C19.7017 18.016 19.6083 17.9771 19.539 17.8992C19.4697 17.8213 19.435 17.7163 19.435 17.584C19.435 17.4517 19.4697 17.3467 19.539 17.2688C19.6083 17.1909 19.7017 17.152 19.819 17.152C19.9363 17.152 20.0297 17.1909 20.099 17.2688C20.1683 17.3467 20.203 17.4517 20.203 17.584C20.203 17.7163 20.1683 17.8213 20.099 17.8992ZM20.4641 17.3136C20.415 17.3776 20.3905 17.4677 20.3905 17.584C20.3905 17.7003 20.415 17.7909 20.4641 17.856C20.5131 17.92 20.5803 17.952 20.6657 17.952C20.7467 17.952 20.8129 17.9211 20.8641 17.8592C20.9153 17.7973 20.9409 17.7099 20.9409 17.5968V17.5712C20.9409 17.4613 20.9153 17.3749 20.8641 17.312C20.8139 17.248 20.7478 17.216 20.6657 17.216C20.5803 17.216 20.5131 17.2485 20.4641 17.3136ZM20.4065 17.9024C20.3467 17.8267 20.3169 17.7205 20.3169 17.584C20.3169 17.4475 20.3467 17.3413 20.4065 17.2656C20.4662 17.1899 20.5483 17.152 20.6529 17.152C20.7862 17.152 20.8811 17.2107 20.9377 17.328H20.9409V16.8H21.0161V18H20.9441L20.9425 17.8384H20.9393C20.8849 17.9568 20.7894 18.016 20.6529 18.016C20.5494 18.016 20.4673 17.9781 20.4065 17.9024ZM21.2982 16.976V16.8H21.3766V16.976H21.2982ZM21.2982 18V17.168H21.3766V18H21.2982ZM21.6181 17.2H21.8469V17.0752C21.8469 16.9024 21.929 16.816 22.0933 16.816C22.1402 16.816 22.1861 16.824 22.2309 16.84L22.2133 16.9024C22.177 16.8875 22.1386 16.88 22.0981 16.88C22.0352 16.88 21.9904 16.8949 21.9637 16.9248C21.937 16.9547 21.9237 17.0048 21.9237 17.0752V17.2H22.2261V17.264H21.9237V18H21.8469V17.264H21.6181V17.2ZM22.401 17.168L22.6858 17.8992H22.689L22.9962 17.168H23.0762L22.5642 18.352H22.4842L22.6458 17.9888L22.3194 17.168H22.401Z" fill="white"/>
<circle cx="20" cy="20" r="4.95" stroke="#858585" stroke-width="0.1"/>
<g filter="url(#filter0_f_11_56)">
<path d="M14.0251 3.73332L14.5629 8.46942L17.7294 10.8571L17.5637 7.16137L14.0251 3.73332Z" fill="#CECECE"/>
</g>
<g filter="url(#filter1_f_11_56)">
<path d="M23.0251 29.7333L23.5629 34.4694L26.7294 36.8571L26.5637 33.1614L23.0251 29.7333Z" fill="#CECECE"/>
</g>
<defs>
<filter id="filter0_f_11_56" x="11.7251" y="1.43332" width="8.30432" height="11.7238" filterUnits="userSpaceOnUse" color-interpolation-filters="sRGB">
<feFlood flood-opacity="0" result="BackgroundImageFix"/>
<feBlend mode="normal" in="SourceGraphic" in2="BackgroundImageFix" result="shape"/>
<feGaussianBlur stdDeviation="1.15" result="effect1_foregroundBlur_11_56"/>
</filter>
<filter id="filter1_f_11_56" x="20.7251" y="27.4333" width="8.30432" height="11.7238" filterUnits="userSpaceOnUse" color-interpolation-filters="sRGB">
<feFlood flood-opacity="0" result="BackgroundImageFix"/>
<feBlend mode="normal" in="SourceGraphic" in2="BackgroundImageFix" result="shape"/>
<feGaussianBlur stdDeviation="1.15" result="effect1_foregroundBlur_11_56"/>
</filter>
</defs>
</svg>
