<svg width="95" height="40" viewBox="0 0 95 40" fill="none" xmlns="http://www.w3.org/2000/svg">
<path d="M46.1467 20.76V24H44.1427V15.3C45.0227 15.18 45.9827 15.12 47.0227 15.12C48.2227 15.12 49.1147 15.348 49.6987 15.804C50.2907 16.252 50.5867 16.892 50.5867 17.724C50.5867 18.26 50.4307 18.744 50.1187 19.176C49.8067 19.6 49.3947 19.904 48.8827 20.088V20.112C49.2987 20.344 49.6387 20.82 49.9027 21.54L50.8267 24H48.7267L47.8987 21.624C47.7867 21.288 47.6507 21.06 47.4907 20.94C47.3307 20.82 47.0827 20.76 46.7467 20.76H46.1467ZM46.1467 19.26H46.8187C47.3787 19.26 47.8067 19.144 48.1027 18.912C48.3987 18.672 48.5467 18.34 48.5467 17.916C48.5467 17.084 47.9987 16.668 46.9027 16.668C46.6147 16.668 46.3627 16.692 46.1467 16.74V19.26ZM52.9317 20.328H55.4037C55.3957 19.408 54.9877 18.948 54.1797 18.948C53.8117 18.948 53.5197 19.068 53.3037 19.308C53.0877 19.54 52.9637 19.88 52.9317 20.328ZM52.9437 21.516C52.9997 21.908 53.1637 22.216 53.4357 22.44C53.7157 22.656 54.0757 22.764 54.5157 22.764C55.1077 22.764 55.6877 22.62 56.2557 22.332L56.6757 23.64C55.9637 23.96 55.1837 24.12 54.3357 24.12C53.3437 24.12 52.5437 23.828 51.9357 23.244C51.3357 22.66 51.0357 21.872 51.0357 20.88C51.0357 19.88 51.3157 19.092 51.8757 18.516C52.4357 17.932 53.1877 17.64 54.1317 17.64C55.0997 17.64 55.8517 17.92 56.3877 18.48C56.9237 19.032 57.1917 19.824 57.1917 20.856C57.1917 21.104 57.1757 21.324 57.1437 21.516H52.9437ZM62.8898 22.272L63.3098 23.664C62.6538 23.968 61.9538 24.12 61.2098 24.12C60.1538 24.12 59.3138 23.832 58.6898 23.256C58.0658 22.672 57.7538 21.88 57.7538 20.88C57.7538 19.872 58.0578 19.08 58.6658 18.504C59.2738 17.928 60.1218 17.64 61.2098 17.64C61.9538 17.64 62.6538 17.792 63.3098 18.096L62.8898 19.512C62.3858 19.216 61.8618 19.068 61.3178 19.068C60.8058 19.068 60.4058 19.224 60.1178 19.536C59.8378 19.84 59.6978 20.288 59.6978 20.88C59.6978 21.448 59.8458 21.896 60.1418 22.224C60.4458 22.552 60.8378 22.716 61.3178 22.716C61.8618 22.716 62.3858 22.568 62.8898 22.272ZM64.8435 18.516C65.4115 17.932 66.1955 17.64 67.1955 17.64C68.1955 17.64 68.9755 17.932 69.5355 18.516C70.1035 19.092 70.3875 19.88 70.3875 20.88C70.3875 21.88 70.1035 22.672 69.5355 23.256C68.9755 23.832 68.1955 24.12 67.1955 24.12C66.1955 24.12 65.4115 23.832 64.8435 23.256C64.2755 22.672 63.9915 21.88 63.9915 20.88C63.9915 19.88 64.2755 19.092 64.8435 18.516ZM67.1955 22.716C68.0595 22.716 68.4915 22.104 68.4915 20.88C68.4915 19.656 68.0595 19.044 67.1955 19.044C66.3235 19.044 65.8875 19.656 65.8875 20.88C65.8875 22.104 66.3235 22.716 67.1955 22.716ZM77.1494 15V24H75.3614L75.3254 23.136H75.3014C74.8134 23.792 74.1894 24.12 73.4294 24.12C72.7014 24.12 72.1054 23.836 71.6414 23.268C71.1774 22.692 70.9454 21.896 70.9454 20.88C70.9454 19.84 71.1694 19.04 71.6174 18.48C72.0654 17.92 72.6694 17.64 73.4294 17.64C74.1494 17.64 74.7414 17.932 75.2054 18.516H75.2294V15H77.1494ZM72.7814 20.88C72.7814 21.44 72.8934 21.876 73.1174 22.188C73.3494 22.492 73.6454 22.644 74.0054 22.644C74.3734 22.644 74.6694 22.496 74.8934 22.2C75.1174 21.904 75.2294 21.484 75.2294 20.94V20.82C75.2294 20.284 75.1174 19.868 74.8934 19.572C74.6694 19.268 74.3734 19.116 74.0054 19.116C73.6214 19.116 73.3214 19.264 73.1054 19.56C72.8894 19.856 72.7814 20.296 72.7814 20.88ZM78.7336 16.56V15H80.7616V16.56H78.7336ZM78.7336 24V17.76H80.7616V24H78.7336ZM82.0407 19.356V18H83.4807V17.616C83.4807 16.8 83.6927 16.18 84.1167 15.756C84.5487 15.332 85.1647 15.12 85.9647 15.12C86.4767 15.12 86.9687 15.18 87.4407 15.3L87.1647 16.74C86.8767 16.62 86.5807 16.56 86.2767 16.56C85.9647 16.56 85.7447 16.636 85.6167 16.788C85.4967 16.94 85.4367 17.216 85.4367 17.616V18H87.3207V19.356H85.4367V24H83.4807V19.356H82.0407ZM91.0677 22.164H91.0917L92.4357 17.76H94.4517L91.0917 26.64H89.0757L90.1797 24L87.8157 17.76H89.9397L91.0677 22.164Z" fill="white"/>
<circle cx="20" cy="20" r="19.5" fill="black"/>
<circle cx="20" cy="20" r="19.5" fill="#B0B0B0" fill-opacity="0.43"/>
<circle cx="20" cy="20" r="19.5" stroke="black"/>
<circle cx="20" cy="20" r="17.5" fill="black" stroke="black"/>
<path d="M8.34666 27.7492C12.3478 26.5181 22.012 25.2562 28.66 30.0576" stroke="#E2E2E2" stroke-width="3" stroke-linecap="round"/>
<path d="M6.5 14.6203C11.1167 13.0815 23.5817 10.927 34.2 17.3903" stroke="#E2E2E2" stroke-width="4" stroke-linecap="round"/>
<path d="M7.42334 21.5861C12.3478 20.0472 24.0433 18.4468 31.43 24.3561" stroke="#E2E2E2" stroke-width="3.5" stroke-linecap="round"/>
<path d="M29 20C29 24.9706 24.9706 29 20 29C15.0294 29 11 24.9706 11 20C11 15.0294 15.0294 11 20 11C24.9706 11 29 15.0294 29 20Z" fill="black"/>
<circle cx="20" cy="20" r="6" fill="#1ED760"/>
<circle cx="20" cy="20" r="1" fill="#D9D9D9"/>
<path d="M17.0041 18V16.84C17.0905 16.824 17.1828 16.816 17.2809 16.816C17.4281 16.816 17.5385 16.8432 17.6121 16.8976C17.6868 16.9509 17.7241 17.0288 17.7241 17.1312C17.7241 17.2944 17.634 17.3947 17.4537 17.432V17.4352C17.4804 17.448 17.5049 17.4704 17.5273 17.5024C17.5508 17.5344 17.5785 17.5872 17.6105 17.6608L17.7561 18H17.6713L17.5321 17.6704C17.514 17.6277 17.4985 17.5952 17.4857 17.5728C17.474 17.5504 17.4612 17.5307 17.4473 17.5136C17.4334 17.4955 17.4169 17.4837 17.3977 17.4784C17.3785 17.472 17.3582 17.4677 17.3369 17.4656C17.3156 17.4624 17.2846 17.4608 17.2441 17.4608H17.0841V18H17.0041ZM17.0841 17.3936H17.2441C17.3828 17.3936 17.4841 17.3723 17.5481 17.3296C17.6132 17.2869 17.6457 17.2224 17.6457 17.136C17.6457 16.9685 17.5225 16.8848 17.2761 16.8848C17.2057 16.8848 17.1417 16.8901 17.0841 16.9008V17.3936ZM17.8984 17.6112C17.8994 17.7179 17.9288 17.8016 17.9864 17.8624C18.045 17.9232 18.1229 17.9536 18.22 17.9536C18.3085 17.9536 18.3922 17.9312 18.4712 17.8864L18.4952 17.9456C18.4088 17.9925 18.3154 18.016 18.2152 18.016C18.0957 18.016 18.0002 17.9776 17.9288 17.9008C17.8584 17.8229 17.8232 17.7173 17.8232 17.584C17.8232 17.4496 17.8568 17.344 17.924 17.2672C17.9912 17.1904 18.0829 17.152 18.1992 17.152C18.3101 17.152 18.396 17.1888 18.4568 17.2624C18.5176 17.336 18.548 17.4405 18.548 17.576V17.6112H17.8984ZM17.9 17.5472H18.4744C18.4722 17.4395 18.4472 17.3573 18.3992 17.3008C18.3522 17.2432 18.2856 17.2144 18.1992 17.2144C18.1074 17.2144 18.0354 17.2437 17.9832 17.3024C17.9309 17.36 17.9032 17.4416 17.9 17.5472ZM19.0723 17.2176C18.9678 17.2176 18.8856 17.2501 18.8259 17.3152C18.7672 17.3792 18.7379 17.4688 18.7379 17.584C18.7379 17.6949 18.7688 17.784 18.8307 17.8512C18.8926 17.9184 18.9731 17.952 19.0723 17.952C19.1459 17.952 19.2163 17.9344 19.2835 17.8992L19.3059 17.96C19.2312 17.9973 19.1523 18.016 19.0691 18.016C18.9475 18.016 18.8488 17.9765 18.7731 17.8976C18.6984 17.8187 18.6611 17.7141 18.6611 17.584C18.6611 17.4496 18.6974 17.344 18.7699 17.2672C18.8424 17.1904 18.9422 17.152 19.0691 17.152C19.1523 17.152 19.2312 17.1707 19.3059 17.208L19.2835 17.2704C19.2163 17.2352 19.1459 17.2176 19.0723 17.2176ZM20.0446 17.3152C19.9891 17.2491 19.9139 17.216 19.819 17.216C19.7241 17.216 19.6489 17.2491 19.5934 17.3152C19.5379 17.3803 19.5102 17.4699 19.5102 17.584C19.5102 17.6981 19.5379 17.7883 19.5934 17.8544C19.6489 17.9195 19.7241 17.952 19.819 17.952C19.9139 17.952 19.9891 17.9195 20.0446 17.8544C20.1001 17.7883 20.1278 17.6981 20.1278 17.584C20.1278 17.4699 20.1001 17.3803 20.0446 17.3152ZM20.099 17.8992C20.0297 17.9771 19.9363 18.016 19.819 18.016C19.7017 18.016 19.6083 17.9771 19.539 17.8992C19.4697 17.8213 19.435 17.7163 19.435 17.584C19.435 17.4517 19.4697 17.3467 19.539 17.2688C19.6083 17.1909 19.7017 17.152 19.819 17.152C19.9363 17.152 20.0297 17.1909 20.099 17.2688C20.1683 17.3467 20.203 17.4517 20.203 17.584C20.203 17.7163 20.1683 17.8213 20.099 17.8992ZM20.4641 17.3136C20.415 17.3776 20.3905 17.4677 20.3905 17.584C20.3905 17.7003 20.415 17.7909 20.4641 17.856C20.5131 17.92 20.5803 17.952 20.6657 17.952C20.7467 17.952 20.8129 17.9211 20.8641 17.8592C20.9153 17.7973 20.9409 17.7099 20.9409 17.5968V17.5712C20.9409 17.4613 20.9153 17.3749 20.8641 17.312C20.8139 17.248 20.7478 17.216 20.6657 17.216C20.5803 17.216 20.5131 17.2485 20.4641 17.3136ZM20.4065 17.9024C20.3467 17.8267 20.3169 17.7205 20.3169 17.584C20.3169 17.4475 20.3467 17.3413 20.4065 17.2656C20.4662 17.1899 20.5483 17.152 20.6529 17.152C20.7862 17.152 20.8811 17.2107 20.9377 17.328H20.9409V16.8H21.0161V18H20.9441L20.9425 17.8384H20.9393C20.8849 17.9568 20.7894 18.016 20.6529 18.016C20.5494 18.016 20.4673 17.9781 20.4065 17.9024ZM21.2982 16.976V16.8H21.3766V16.976H21.2982ZM21.2982 18V17.168H21.3766V18H21.2982ZM21.6181 17.2H21.8469V17.0752C21.8469 16.9024 21.929 16.816 22.0933 16.816C22.1402 16.816 22.1861 16.824 22.2309 16.84L22.2133 16.9024C22.177 16.8875 22.1386 16.88 22.0981 16.88C22.0352 16.88 21.9904 16.8949 21.9637 16.9248C21.937 16.9547 21.9237 17.0048 21.9237 17.0752V17.2H22.2261V17.264H21.9237V18H21.8469V17.264H21.6181V17.2ZM22.401 17.168L22.6858 17.8992H22.689L22.9962 17.168H23.0762L22.5642 18.352H22.4842L22.6458 17.9888L22.3194 17.168H22.401Z" fill="white"/>
<circle cx="20" cy="20" r="4.95" stroke="#858585" stroke-width="0.1"/>
<g filter="url(#filter0_f_3_2626)">
<path d="M14.0251 3.73332L14.5629 8.46942L17.7294 10.8571L17.5637 7.16137L14.0251 3.73332Z" fill="#CECECE"/>
</g>
<g filter="url(#filter1_f_3_2626)">
<path d="M23.0251 29.7333L23.5629 34.4694L26.7294 36.8571L26.5637 33.1614L23.0251 29.7333Z" fill="#CECECE"/>
</g>
<defs>
<filter id="filter0_f_3_2626" x="11.7251" y="1.43332" width="8.30432" height="11.7238" filterUnits="userSpaceOnUse" color-interpolation-filters="sRGB">
<feFlood flood-opacity="0" result="BackgroundImageFix"/>
<feBlend mode="normal" in="SourceGraphic" in2="BackgroundImageFix" result="shape"/>
<feGaussianBlur stdDeviation="1.15" result="effect1_foregroundBlur_3_2626"/>
</filter>
<filter id="filter1_f_3_2626" x="20.7251" y="27.4333" width="8.30432" height="11.7238" filterUnits="userSpaceOnUse" color-interpolation-filters="sRGB">
<feFlood flood-opacity="0" result="BackgroundImageFix"/>
<feBlend mode="normal" in="SourceGraphic" in2="BackgroundImageFix" result="shape"/>
<feGaussianBlur stdDeviation="1.15" result="effect1_foregroundBlur_3_2626"/>
</filter>
</defs>
</svg>
